REM DIRINDEX 1\4,1\2\5,1\2\6,1\3\7,1\3\8
REM DIRNAME folder01,folder02,folder03,folder04,folder05,folder06,folder07,folder08
TITLE ""
FILE "017_Day09_Check2_Phrases.mp3" MP3
  TRACK 01 AUDIO
    TITLE "0:"
    INDEX 01 00:00:00
  TRACK 02 AUDIO
    TITLE "4:cjc124_0529"
    INDEX 01 00:00:31
  TRACK 03 AUDIO
    TITLE "0:"
    INDEX 01 00:01:46
  TRACK 04 AUDIO
    TITLE "5:cjc124_0530"
    INDEX 01 00:02:02
  TRACK 05 AUDIO
    TITLE "0:"
    INDEX 01 00:04:25
  TRACK 06 AUDIO
    TITLE "6:cjc124_0531"
    INDEX 01 00:04:46
  TRACK 07 AUDIO
    TITLE "0:"
    INDEX 01 00:06:41
  TRACK 08 AUDIO
    TITLE "5:cjc124_0532"
    INDEX 01 00:07:07
  TRACK 09 AUDIO
    TITLE "0:"
    INDEX 01 00:08:73
  TRACK 10 AUDIO
    TITLE "6:cjc124_0533"
    INDEX 01 00:09:16
  TRACK 11 AUDIO
    TITLE "0:"
    INDEX 01 00:10:37
  TRACK 12 AUDIO
    TITLE "5:cjc124_0534"
    INDEX 01 00:11:03
  TRACK 13 AUDIO
    TITLE "0:"
    INDEX 01 00:12:71
  TRACK 14 AUDIO
    TITLE "6:cjc124_0535"
    INDEX 01 00:13:12
  TRACK 15 AUDIO
    TITLE "0:"
    INDEX 01 00:14:64
  TRACK 16 AUDIO
    TITLE "5:cjc124_0536"
    INDEX 01 00:15:28
  TRACK 17 AUDIO
    TITLE "0:"
    INDEX 01 00:17:25
  TRACK 18 AUDIO
    TITLE "6:cjc124_0537"
    INDEX 01 00:17:53
  TRACK 19 AUDIO
    TITLE "0:"
    INDEX 01 00:19:20
  TRACK 20 AUDIO
    TITLE "5:cjc124_0538"
    INDEX 01 00:19:63
  TRACK 21 AUDIO
    TITLE "0:"
    INDEX 01 00:21:49
  TRACK 22 AUDIO
    TITLE "6:cjc124_0539"
    INDEX 01 00:21:72
  TRACK 23 AUDIO
    TITLE "0:"
    INDEX 01 00:23:55
  TRACK 24 AUDIO
    TITLE "5:cjc124_0540"
    INDEX 01 00:24:22
  TRACK 25 AUDIO
    TITLE "0:"
    INDEX 01 00:26:17
  TRACK 26 AUDIO
    TITLE "6:cjc124_0541"
    INDEX 01 00:26:36
  TRACK 27 AUDIO
    TITLE "0:"
    INDEX 01 00:28:02
  TRACK 28 AUDIO
    TITLE "5:cjc124_0542"
    INDEX 01 00:28:39
  TRACK 29 AUDIO
    TITLE "0:"
    INDEX 01 00:30:16
  TRACK 30 AUDIO
    TITLE "6:cjc124_0543"
    INDEX 01 00:30:34
  TRACK 31 AUDIO
    TITLE "0:"
    INDEX 01 00:31:43
  TRACK 32 AUDIO
    TITLE "5:cjc124_0544"
    INDEX 01 00:32:07
  TRACK 33 AUDIO
    TITLE "0:"
    INDEX 01 00:33:58
  TRACK 34 AUDIO
    TITLE "6:cjc124_0545"
    INDEX 01 00:34:02
  TRACK 35 AUDIO
    TITLE "0:"
    INDEX 01 00:35:31
  TRACK 36 AUDIO
    TITLE "5:cjc124_0546"
    INDEX 01 00:35:68
  TRACK 37 AUDIO
    TITLE "0:"
    INDEX 01 00:38:02
  TRACK 38 AUDIO
    TITLE "6:cjc124_0547"
    INDEX 01 00:38:28
  TRACK 39 AUDIO
    TITLE "0:"
    INDEX 01 00:40:11
  TRACK 40 AUDIO
    TITLE "5:cjc124_0548"
    INDEX 01 00:40:54
  TRACK 41 AUDIO
    TITLE "0:"
    INDEX 01 00:42:37
  TRACK 42 AUDIO
    TITLE "6:cjc124_0549"
    INDEX 01 00:42:55
  TRACK 43 AUDIO
    TITLE "0:"
    INDEX 01 00:44:28
  TRACK 44 AUDIO
    TITLE "5:cjc124_0550"
    INDEX 01 00:44:67
  TRACK 45 AUDIO
    TITLE "0:"
    INDEX 01 00:46:53
  TRACK 46 AUDIO
    TITLE "6:cjc124_0551"
    INDEX 01 00:47:09
  TRACK 47 AUDIO
    TITLE "0:"
    INDEX 01 00:48:67
  TRACK 48 AUDIO
    TITLE "5:cjc124_0552"
    INDEX 01 00:49:33
  TRACK 49 AUDIO
    TITLE "0:"
    INDEX 01 00:51:22
  TRACK 50 AUDIO
    TITLE "6:cjc124_0553"
    INDEX 01 00:51:46
  TRACK 51 AUDIO
    TITLE "0:"
    INDEX 01 00:53:04
  TRACK 52 AUDIO
    TITLE "5:cjc124_0554"
    INDEX 01 00:53:43
  TRACK 53 AUDIO
    TITLE "0:"
    INDEX 01 00:55:61
  TRACK 54 AUDIO
    TITLE "6:cjc124_0555"
    INDEX 01 00:56:16
  TRACK 55 AUDIO
    TITLE "0:"
    INDEX 01 00:57:48
  TRACK 56 AUDIO
    TITLE "5:cjc124_0556"
    INDEX 01 00:58:11
  TRACK 57 AUDIO
    TITLE "0:"
    INDEX 01 00:59:67
  TRACK 58 AUDIO
    TITLE "6:cjc124_0557"
    INDEX 01 01:00:12
  TRACK 59 AUDIO
    TITLE "0:"
    INDEX 01 01:01:38
  TRACK 60 AUDIO
    TITLE "5:cjc124_0558"
    INDEX 01 01:02:03
  TRACK 61 AUDIO
    TITLE "0:"
    INDEX 01 01:03:71
  TRACK 62 AUDIO
    TITLE "6:cjc124_0559"
    INDEX 01 01:04:15
  TRACK 63 AUDIO
    TITLE "0:"
    INDEX 01 01:05:58
  TRACK 64 AUDIO
    TITLE "5:cjc124_0560"
    INDEX 01 01:06:22
  TRACK 65 AUDIO
    TITLE "0:"
    INDEX 01 01:07:70
  TRACK 66 AUDIO
    TITLE "6:cjc124_0561"
    INDEX 01 01:08:13
  TRACK 67 AUDIO
    TITLE "0:"
    INDEX 01 01:09:46
